<svg width="322" height="113" viewBox="0 0 322 113" fill="none" xmlns="http://www.w3.org/2000/svg">
<path fill-rule="evenodd" clip-rule="evenodd" d="M269.322 13.2073L269.408 13.6389H270.181H270.697C270.869 14.2432 270.783 15.5381 271.212 16.7467C271.642 18.0415 271.642 19.1638 271.986 19.9407L271.9 20.286C271.986 20.286 272.33 20.4587 272.415 20.4587C272.931 20.4587 272.587 20.4587 273.619 20.7176C276.111 21.5809 275.337 21.4946 277.142 21.1493C277.915 20.9766 278.345 20.7176 279.204 20.3723C279.376 19.9407 279.29 20.1997 279.29 19.9407C278.517 20.1997 277.486 20.286 277.056 19.5091C277.915 19.0775 277.4 16.4877 277.486 15.7108C277.572 15.1928 277.658 14.3296 277.572 13.8116C277.486 13.2936 276.454 12.9483 276.798 12.4304C278.087 12.1714 277.915 11.9988 278.689 11.5671C279.634 12.1714 281.611 12.2577 282.47 13.2073C283.931 13.2073 284.017 14.7612 283.587 15.1928C283.759 15.5381 283.501 15.5381 283.673 16.2287C283.845 17.1783 283.931 17.2646 283.501 18.6458C283.329 19.1638 283.071 19.1638 282.556 19.1638C282.556 19.5954 282.556 19.6817 282.556 20.1997C283.415 20.4587 284.189 20.4587 285.22 20.6313C285.392 20.6313 285.993 20.4587 286.337 20.286C286.767 20.1997 287.368 20.286 287.97 20.9766C288.314 21.6672 288.829 22.2715 289.001 22.7894C289.603 23.6527 290.204 24.6023 291.665 25.4655C292.696 24.516 293.04 23.1347 294.329 22.2715C294.329 21.8399 292.61 23.739 291.837 24.0843C292.095 23.5664 293.298 21.3219 291.149 21.5809C290.806 21.1493 290.376 19.1638 293.384 17.9552C296.735 17.1783 296.907 15.8834 292.868 16.7467C293.126 15.9697 294.071 15.7971 294.329 15.0202C295.102 14.5022 296.305 14.1569 297.165 14.4159C297.509 14.4159 297.766 13.8979 297.509 13.8979C296.821 13.8116 296.993 13.5526 296.22 13.6389C296.821 13.2936 297.68 13.121 298.626 13.38C299.571 11.5671 300.946 12.2577 302.149 12.3441C303.094 12.0851 303.008 11.5671 303.868 11.3945C305.758 11.6535 306.704 12.6894 307.133 12.7757C307.735 12.862 306.618 11.9988 305.844 11.4808C306.618 11.7398 307.133 11.2218 308.079 11.7398C309.196 12.9483 309.196 13.38 309.196 14.6749C309.797 13.9843 308.852 13.2936 309.625 12.4304C309.454 13.6389 312.375 14.2432 311.344 16.0561C312.204 17.0056 312.633 17.9552 312.977 18.8185C313.235 19.6817 314.18 20.8903 315.297 22.7031C315.383 23.48 315.899 23.739 316.672 24.7749C316.93 25.7245 316.157 26.4151 315.899 26.7604C315.813 26.7604 315.211 25.9835 314.953 26.0698C314.696 26.2425 314.696 26.0698 314.782 26.3288C314.868 26.5014 315.125 26.6741 315.297 26.9331C315.297 27.5373 315.039 27.3647 314.696 27.6237C314.18 27.71 313.493 27.451 312.977 27.1057C312.805 27.0194 311.602 30.1271 308.68 31.7673C308.422 31.9399 308.165 30.3861 308.251 30.2998C311.43 29.4365 312.118 26.7604 312.032 26.6741C309.626 25.0339 308.508 26.3288 306.618 24.0843C306.704 26.5878 307.735 28.8322 308.766 32.4579C309.969 34.2707 310.141 34.9613 310.055 37.3784C309.625 36.5152 309.625 36.4289 309.196 36.1699C309.797 37.6374 309.54 37.3784 309.196 40.6588C308.079 37.9827 308.079 39.3639 307.649 40.2272C306.79 41.6947 306.36 42.7306 305.93 43.0759C308.938 43.1623 307.649 43.5076 310.743 42.6443C312.977 42.2127 314.61 41.9537 316.672 40.9178C317.789 41.1768 318.563 41.2631 319.164 42.1263C319.422 43.4212 319.938 44.2845 319.594 44.8888C319.078 46.011 322.172 51.3632 322.344 51.7085C322 53.5213 321.141 53.9529 319.594 54.3846C319.164 54.5572 318.305 55.0752 317.532 55.3341C316.414 55.6794 315.727 56.5427 314.094 56.4564L310.657 56.8017L312.719 52.3127C314.61 52.658 314.008 52.8307 315.125 52.5717C316.243 52.3991 315.899 52.8307 316.758 51.9674C317.446 51.2768 315.297 47.8238 314.61 47.3059C314.094 46.9606 313.493 46.8742 312.547 47.3922C308.594 48.6008 306.532 50.9315 302.579 52.2264C299.055 53.2623 301.204 51.2768 297.766 51.7085C296.735 51.1042 295.102 54.0393 289.603 56.0247C286.595 57.147 283.501 57.7512 279.548 58.2692C279.548 58.8735 278.775 58.9598 276.54 59.7367C276.025 60.082 276.025 61.4632 274.564 61.1179C273.275 60.7726 271.986 65.0889 271.298 65.7795C266.658 69.7505 264.08 69.4915 259.955 70.3548C259.01 71.0454 257.978 70.7001 257.291 73.1172C254.713 75.7933 255.572 77.9514 253.596 80.0232C252.392 80.9728 251.103 80.1959 250.33 81.6634C248.01 82.613 246.979 82.8719 244.315 82.5266C245.088 80.1095 245.69 78.2967 246.291 76.7429C247.408 77.2608 249.385 77.4334 250.932 76.3975C251.533 74.1531 252.65 72.2539 252.908 70.2684C253.252 69.0599 252.736 67.8513 253.596 67.3334C254.455 66.9881 255.228 66.8154 256.174 66.4701C261.416 61.9812 261.158 61.4632 261.502 59.3051C261.416 58.8735 258.064 62.6718 255.572 62.6718C255.314 62.6718 254.713 61.6359 254.885 61.2043C256.689 60.9453 260.556 58.7872 261.33 58.0966L261.244 57.4059C260.299 58.1829 255.744 60.9453 254.713 60.341C254.541 59.8231 254.369 59.3914 254.541 59.1325C255.572 59.3051 260.127 57.4923 261.072 56.888C261.158 56.888 260.9 56.4564 260.9 56.37C259.955 56.7153 255.572 58.3555 254.541 58.2692C254.455 57.5786 254.455 56.9743 254.627 56.9743C255.744 56.9743 259.525 56.37 260.556 55.8521C259.095 52.2264 258.752 49.3777 260.041 47.1332C253.939 48.2554 252.822 53.694 251.018 57.4923C249.986 61.9812 246.377 59.8231 242.94 63.0171C244.83 58.7872 247.924 59.4778 248.268 55.8521C245.088 60.341 242.252 58.7008 239.674 64.7436C238.643 61.8949 241.479 58.0102 242.252 57.5786C242.768 57.3196 241.994 56.1111 238.471 58.6145C241.049 54.5572 241.049 53.3487 244.916 52.8307C247.58 51.5358 246.291 47.9101 250.588 46.0973C255.486 44.0255 257.463 46.4426 260.47 46.1836C261.072 45.3204 262.189 44.7161 263.048 44.3708C263.048 44.0255 262.705 43.9392 262.877 43.0759C265.283 43.1623 266.486 42.8169 268.634 41.9537C270.869 41.3494 271.556 41.4357 272.158 41.0041C272.158 40.3135 272.587 40.0545 273.189 39.3639C271.642 39.7092 270.267 40.3998 267.861 40.6588C266.314 40.8315 264.509 39.8819 263.478 39.2776L266.486 38.587C270.095 37.8101 271.126 37.5511 275.337 36.3425C275.509 36.2562 275.595 35.8246 275.595 35.4793C275.767 34.4434 275.681 33.8391 275.767 32.1989C275.853 32.0263 275.423 27.8826 275.251 27.5373C275.337 25.3792 269.494 24.6886 268.806 23.3074C268.119 21.8399 268.033 20.7176 267.689 19.5091L267.002 17.0056L266.572 14.1569L267.259 14.0706C267.087 13.7253 267.087 13.8116 266.83 13.6389C266.572 13.2936 266.486 13.2073 266.056 12.1714C266.056 12.1714 265.541 11.2218 265.541 11.1355C265.455 10.8765 265.283 10.3586 265.369 10.1859C265.712 10.0133 265.712 10.2723 265.798 10.4449L265.97 10.7902C266.142 11.0492 266.056 10.9629 266.228 11.1355H266.314C266.228 10.8765 266.056 10.7039 265.97 10.4449C265.798 9.84063 265.541 9.32268 265.541 8.97737C265.627 8.80472 265.798 8.89105 265.884 8.89105C265.97 8.97737 266.142 9.409 266.314 9.7543C266.486 10.0133 266.658 10.3586 266.744 10.4449C266.658 10.1859 266.486 9.92695 266.4 9.66798C266.228 9.23635 265.97 8.7184 265.97 8.54575C265.884 8.02779 266.228 7.94147 266.486 8.28677C266.916 9.0637 267.173 9.66798 267.259 9.7543C267.345 9.92695 267.345 9.84063 267.345 9.66798L267.173 9.23635C267.087 8.97737 267.002 8.54575 267.087 8.45942C267.173 8.3731 267.173 8.28677 267.431 8.3731C267.689 8.45942 267.947 9.92695 268.376 10.5312L268.634 10.7902C268.634 10.7902 268.548 10.7039 268.72 10.5312C268.72 10.4449 268.806 10.2723 268.806 10.1859V9.84063C268.892 9.409 269.15 9.0637 269.408 9.0637C269.666 9.0637 269.408 9.7543 269.494 10.2723C269.58 10.6176 269.666 11.3945 269.666 11.6535C269.666 11.9988 269.58 12.2577 269.408 12.5167C269.322 12.6894 269.408 12.4304 269.236 12.862L269.322 13.2073Z" fill="white"/>
<path fill-rule="evenodd" clip-rule="evenodd" d="M257.291 37.2923C257.291 34.7025 257.205 34.4436 256.947 34.0119C256.517 33.4077 255.658 32.3718 255.056 31.7675C254.455 31.1632 254.111 31.0769 254.111 28.1418C254.111 25.2067 254.455 19.5093 254.197 16.3152C253.939 13.1212 253.08 12.3443 252.564 11.0494C252.049 9.84082 251.877 8.11431 250.846 7.16473C249.814 6.21515 247.924 5.95617 246.978 4.83394C246.033 3.71171 246.033 1.81255 244.314 0.862972C242.596 -0.0866078 239.158 -0.0866078 237.096 0.345019C235.033 0.776647 234.346 1.72623 234.002 2.50316C233.658 3.28008 233.573 3.97069 233.487 4.66129C233.487 5.35189 233.487 5.95617 233.143 6.30147C232.799 6.56045 232.198 6.56045 231.768 6.21515C231.338 5.86985 231.08 5.35189 230.823 5.00659C230.565 4.74762 230.307 4.74762 229.534 4.74762C228.76 4.74762 227.557 4.74762 226.87 4.74762C226.268 4.74762 226.182 4.83394 226.01 5.17924C225.838 5.43822 225.581 5.95617 225.409 6.21515C225.237 6.47413 225.065 6.47413 224.635 6.47413C224.206 6.47413 223.604 6.56045 223.174 6.81943C222.745 6.90575 222.573 7.42371 222.487 7.76901C222.401 8.11431 222.401 8.28696 221.885 8.45961C221.37 8.63226 220.253 8.80491 219.651 8.97756C219.135 9.06389 219.135 9.15021 218.964 11.8263C218.878 14.5024 218.62 19.8546 218.534 22.5307C218.448 25.2067 218.362 25.2931 217.932 25.4657C217.503 25.6384 216.729 25.811 216.214 25.9837C215.784 26.1563 215.612 26.329 215.526 27.8828C215.44 29.523 215.268 32.5444 215.182 34.2709C215.096 35.9974 215.096 36.3427 214.667 36.5154C214.237 36.688 213.292 36.688 212.089 36.688C210.972 36.688 209.597 36.7744 208.909 36.8607C208.222 36.947 208.222 37.0333 207.792 37.5513C207.448 38.0692 206.675 39.0188 206.245 39.5368C205.815 40.0547 205.644 40.141 205.042 40.2274C204.526 40.3137 203.581 40.4863 202.98 40.4863C202.464 40.4863 202.292 40.4863 201.948 40.7453C201.605 41.0043 200.917 41.6949 200.573 42.0402C200.23 42.3855 200.23 42.4718 199.714 42.5582C199.284 42.5582 198.425 42.5582 197.909 42.5582C197.394 42.5582 197.222 42.5582 196.792 41.5223C196.362 40.4863 195.675 38.5009 195.331 37.465C194.988 36.4291 194.988 36.3427 194.214 36.2564C193.441 36.1701 191.808 36.0838 191.035 35.9974C190.261 35.9974 190.175 35.9974 189.917 35.1342C189.66 34.2709 189.058 32.4581 188.8 31.5085C188.542 30.6452 188.542 30.6452 187.339 29.9546C186.136 29.264 183.816 27.9692 182.527 27.2786C181.238 26.588 181.066 26.4153 180.035 26.329C179.089 26.2426 177.371 26.1563 176.34 26.07C175.394 26.07 175.136 26.07 174.793 27.1059C174.535 28.1418 174.191 30.041 174.105 31.1632C173.933 32.1991 173.933 32.3718 173.504 32.3718C173.074 32.4581 172.129 32.4581 171.441 32.4581C170.84 32.4581 170.496 32.3718 170.324 31.5948C170.152 30.8179 170.066 29.264 169.98 28.4871C169.894 27.7102 169.808 27.6239 168.691 27.6239C167.574 27.6239 165.512 27.6239 164.48 27.7102C163.449 27.7965 163.449 27.7965 163.277 31.5085C163.105 35.2205 162.762 42.4718 162.59 46.3565C162.418 50.1548 162.418 50.5864 161.988 50.7591C161.559 50.9317 160.699 50.9317 159.238 51.018C157.777 51.1044 155.715 51.277 154.598 51.4497C153.481 51.6223 153.309 51.6223 152.793 52.8309C152.278 54.0394 151.418 56.3702 150.989 57.5788C150.559 58.7873 150.473 58.96 149.356 59.0463C148.239 59.1326 146.09 59.219 144.973 59.3053C143.856 59.3916 143.684 59.6506 143.77 63.8805C143.77 64.4848 144.114 71.8225 144.2 71.8225C144.543 71.8225 146.692 72.5131 147.036 68.9737C147.379 65.4344 146.95 71.3045 147.122 67.3336C147.207 63.3626 147.379 62.3267 147.465 61.6361C147.637 60.9455 147.809 60.6865 148.411 60.4275C149.012 60.2549 150.129 60.1685 150.903 59.9959C151.59 59.9096 151.934 59.7369 152.449 58.96C152.965 58.1831 153.739 56.8019 154.254 56.1113C154.77 55.3343 155.028 55.248 155.973 55.0753C156.918 54.989 158.551 54.8164 160.012 54.8164C161.473 54.8164 162.934 54.9027 163.793 54.989C164.652 54.989 165.082 54.9027 165.426 54.5574C165.769 54.2121 166.113 53.6078 166.371 50.8454C166.629 47.9967 166.801 42.9898 166.887 40.2274C166.973 37.465 166.973 36.947 167.316 36.688C167.66 36.4291 168.262 36.4291 168.777 36.7744C169.293 37.1197 169.637 37.8103 170.668 38.0692C171.699 38.3282 173.504 38.2419 174.793 38.1556C176.082 37.9829 176.941 37.8966 177.285 37.0333C177.629 36.2564 177.543 34.7889 177.8 34.0119C178.058 33.1487 178.66 32.8897 179.691 32.976C180.722 32.976 182.183 33.3213 183.128 33.5803C184.16 33.8393 184.761 34.1846 185.191 35.0478C185.621 35.9111 185.964 37.2923 186.136 38.1556C186.308 39.0188 186.394 39.2778 187.253 39.4504C188.113 39.6231 189.831 39.7094 190.691 39.7957C191.636 39.8821 191.722 40.0547 192.495 41.6086C193.269 43.0761 194.644 45.9249 195.417 47.3924C196.191 48.7736 196.363 48.7736 197.308 48.7736C198.253 48.7736 200.058 48.6873 201.089 48.5146C202.12 48.342 202.378 47.9967 202.808 47.3924C203.151 46.7881 203.581 46.0112 204.097 45.5795C204.612 45.1479 205.3 45.0616 205.987 44.63C206.675 44.1983 207.362 43.5077 207.878 42.9035C208.393 42.2992 208.565 41.9539 209.854 41.8676C211.143 41.7812 213.378 42.1265 214.925 42.2129C216.385 42.3855 217.073 42.3855 217.76 42.2129C218.448 42.0402 219.135 41.7812 219.393 39.7094C219.651 37.6376 219.565 33.9256 219.565 31.8538C219.565 29.782 219.737 29.3504 220.253 29.0051C220.768 28.5734 221.628 28.1418 222.229 27.8828C222.831 27.6239 223.088 27.6239 223.26 25.0341C223.346 22.4443 223.26 17.3511 223.862 14.675C224.463 11.999 225.666 11.9126 226.698 11.5673C227.729 11.222 228.502 10.7041 229.19 10.5314C229.877 10.3588 230.393 10.4451 230.994 10.7041C231.596 10.963 232.112 11.3947 232.971 11.481C233.83 11.5673 234.947 11.3084 235.721 10.1861C236.494 9.06389 237.01 7.0784 237.697 6.0425C238.299 5.00659 239.158 5.00659 240.018 5.00659C240.963 5.00659 241.994 4.92027 242.682 5.61087C243.369 6.30147 243.713 7.85533 244.486 8.63226C245.174 9.40919 246.205 9.32286 246.893 9.84082C247.494 10.3588 247.666 11.481 247.924 12.6896C248.182 13.8981 248.611 15.193 249.041 16.1426C249.471 17.0922 249.986 17.6964 250.244 20.5452C250.502 23.3939 250.502 28.4871 250.674 31.2495C250.76 34.0119 251.017 34.3572 251.533 34.7889C252.049 35.2205 252.822 35.7384 253.252 36.0837C253.595 36.4291 253.767 36.688 253.939 40.8316C254.97 39.7957 256.088 38.5872 257.291 37.2923Z" fill="white"/>
<path fill-rule="evenodd" clip-rule="evenodd" d="M222.831 81.5773C223.002 80.8867 223.088 79.4192 223.26 76.1388C223.432 72.9448 223.518 67.9379 223.432 65.0028C223.26 62.0678 222.831 61.2045 221.627 60.8592C220.51 60.6002 218.62 60.9455 217.417 60.9455C216.299 60.9455 215.784 60.6002 215.354 59.737C214.924 58.8737 214.581 57.4062 214.237 56.1976C213.893 54.9891 213.55 53.8668 212.862 53.3489C212.089 52.7446 210.971 52.6583 209.768 52.5719C208.565 52.4856 207.362 52.3993 206.331 52.8309C205.3 53.2626 204.44 54.1258 203.925 54.8164C203.409 55.507 203.237 56.1113 203.065 56.3703C202.808 56.6292 202.55 56.6292 201.69 56.3703C200.917 56.1113 199.542 55.507 198.167 55.3344C196.706 55.1617 195.159 55.4207 194.214 55.766C193.269 56.1113 192.839 56.6292 192.581 57.3198C192.323 58.0105 192.152 58.8737 192.152 61.8951C192.152 64.9165 192.152 70.096 192.152 72.8584C192.066 75.6208 191.808 76.1388 191.55 76.2251C191.292 76.3978 190.949 76.3115 190.433 73.3764C189.917 70.4413 189.23 64.6575 188.8 61.7224C188.37 58.7874 188.113 58.6147 187.511 58.2694C186.91 57.9241 185.964 57.2335 185.449 56.3703C184.933 55.507 184.761 54.2985 183.988 53.6942C183.214 53.0899 181.839 53.0899 180.636 53.3489C179.519 53.5215 178.574 53.9532 178.058 54.4711C177.543 54.9891 177.457 55.6797 176.254 55.8523C175.05 56.1113 172.644 55.8523 171.269 55.9386C169.98 56.025 169.722 56.2839 169.637 57.2335C169.551 58.0968 169.551 59.5643 169.379 60.6002C169.293 61.6361 169.035 62.1541 168.347 62.4994C167.66 62.8447 166.629 63.1037 165.855 63.19C165.082 63.2763 164.652 63.2763 164.309 64.8302C164.051 66.384 163.965 69.4917 163.793 71.1319C163.621 72.7721 163.277 73.0311 162.504 73.1174C161.73 73.2901 160.355 73.2901 159.238 73.4627C158.121 73.6354 157.176 73.808 156.317 74.5849C155.457 75.3619 154.598 76.5704 153.996 77.779C153.395 78.9875 152.965 80.1098 152.363 80.5414C151.762 81.0594 150.903 80.8867 150.129 80.8867C149.356 80.8004 148.754 80.714 148.41 79.5918C148.067 78.4696 147.981 76.2251 147.895 74.6713C147.809 73.1174 147.637 72.2542 147.207 71.7362C146.864 71.2182 146.176 71.0456 145.575 70.9593C144.887 70.8729 144.2 70.8729 143.512 71.1319C142.825 71.3909 142.137 71.8225 141.879 72.4268C141.622 73.0311 141.793 73.8943 141.793 75.1029C141.793 76.3115 141.622 77.9516 141.793 78.9012C141.965 79.8508 142.567 80.1098 142.825 79.5918C143.168 79.0739 143.254 77.6927 143.426 76.4841C143.512 75.2755 143.684 74.2396 143.942 73.6354C144.2 73.0311 144.629 72.8584 145.059 72.9448C145.489 73.1174 145.918 73.549 146.176 75.0166C146.434 76.4841 146.52 78.9875 146.864 80.6277C147.207 82.1816 147.723 82.8722 148.325 83.2175C148.926 83.5628 149.442 83.5628 150.215 83.5628C150.989 83.5628 152.02 83.5628 152.621 83.6491C153.223 83.6491 153.395 83.6491 153.91 82.8722C154.426 82.0953 155.285 80.5414 155.887 79.2465C156.488 78.038 156.832 77.1747 157.52 76.7431C158.207 76.3115 159.324 76.3978 160.613 76.2251C161.902 76.1388 163.449 75.8798 164.394 75.6208C165.34 75.3619 165.598 75.1029 165.855 73.6354C166.027 72.1678 166.113 69.4917 166.285 68.0242C166.371 66.643 166.543 66.4703 167.316 66.125C168.09 65.7797 169.465 65.3481 170.324 64.9165C171.183 64.4849 171.441 64.2259 171.613 63.2763C171.785 62.4131 171.785 60.8592 172.043 60.0823C172.301 59.3053 172.644 59.219 173.16 59.219C173.675 59.3053 174.191 59.478 174.965 59.478C175.652 59.5643 176.511 59.3917 177.285 58.96C178.058 58.4421 178.746 57.6652 179.433 57.2335C180.121 56.8882 180.894 56.9745 181.41 57.1472C181.925 57.3198 182.269 57.5788 182.613 57.7515C183.042 57.9241 183.472 58.0968 184.074 58.8737C184.675 59.6506 185.363 60.9455 185.964 64.3122C186.566 67.6789 186.995 73.2037 187.081 76.0525C187.167 78.9012 186.995 79.1602 187.769 79.2465C188.542 79.4192 190.347 79.5055 191.464 79.4192C192.581 79.3328 193.011 79.1602 193.183 78.9012C193.355 78.7286 193.355 78.5559 193.612 75.5345C193.87 72.5995 194.3 66.8156 194.644 63.6216C194.987 60.5139 195.245 59.9959 195.933 59.5643C196.62 59.1327 197.823 58.8737 198.683 58.7874C199.542 58.7011 200.144 58.8737 200.659 59.3053C201.175 59.737 201.519 60.4276 201.948 60.7729C202.378 61.0318 202.979 60.9455 203.409 60.9455C203.839 60.9455 204.183 60.9455 204.526 60.1686C204.87 59.3917 205.214 57.7515 205.558 56.8019C205.987 55.8523 206.417 55.5933 207.276 55.507C208.136 55.3344 209.339 55.3344 210.284 56.1976C211.229 57.0609 211.831 58.7011 212.26 60.0823C212.69 61.4635 213.034 62.4994 213.378 63.1037C213.721 63.7079 214.151 63.7943 215.096 64.0532C216.042 64.2259 217.674 64.4849 218.706 64.7438C219.823 64.9165 220.424 65.0028 220.596 68.0242C220.768 70.9593 220.424 76.8294 220.596 79.5918C220.768 82.2679 221.37 81.8363 221.799 81.6636C222.143 81.491 222.229 81.6636 222.401 81.8363C222.573 82.0089 222.659 82.2679 222.831 81.5773Z" fill="white"/>
<path fill-rule="evenodd" clip-rule="evenodd" d="M47.6078 82.6134C45.6313 83.1314 43.6547 83.6493 41.936 83.9083C40.3033 84.1673 38.9283 84.2536 37.8111 84.4263C36.694 84.5989 35.7487 84.7716 34.8034 85.5485C33.944 86.3254 33.0847 87.6203 32.3972 88.8289C31.7957 90.0374 31.366 91.1596 30.7644 91.6776C30.1629 92.1955 29.3035 92.1092 28.5301 92.0229C27.7567 91.9366 27.1551 91.8502 26.8114 90.728C26.4677 89.6058 26.3817 87.3613 26.2958 85.8075C26.2099 84.2536 26.038 83.304 25.6083 82.7861C25.1786 82.2681 24.5771 82.0955 23.8896 82.0091C23.2021 81.9228 22.5146 81.9228 21.8272 82.1818C21.1397 82.4408 20.4522 82.8724 20.1084 83.4767C19.8506 84.081 20.0225 84.9442 20.0225 86.1528C20.0225 87.3613 19.8506 89.0015 18.9913 89.8648C18.1319 90.728 16.4132 90.728 15.2961 91.0733C14.1789 91.4186 13.5774 91.9366 13.2336 92.7998C12.8899 93.6631 12.8899 94.958 12.8899 95.9075C12.8899 96.8571 12.8899 97.634 12.2883 98.0657C11.6868 98.4973 10.3977 98.6699 9.62433 98.152C8.85091 97.634 8.50717 96.5118 7.90562 95.9939C7.30407 95.5622 6.35878 95.8212 5.32756 95.9075C4.38227 95.9939 3.35104 95.9939 2.66356 96.3392C1.97607 96.6845 1.71827 97.3751 1.37453 99.6195C1.03079 101.778 0.687043 105.49 0.343302 107.302C-0.000439808 109.115 -0.344181 109.202 -0.000439823 109.288C0.343302 109.374 1.37453 109.461 2.06201 107.907C2.83543 106.353 3.26511 103.159 3.69478 101.432C4.12446 99.7059 4.64007 99.5332 5.24162 99.2742C5.84317 99.1016 6.61659 98.9289 7.1322 99.1016C7.73375 99.1879 8.07749 99.6195 8.93684 99.9648C9.7962 100.31 11.0852 100.569 12.2024 100.396C13.3195 100.224 14.3508 99.7059 14.7805 99.3606C15.2101 99.0153 15.1242 98.8426 15.1242 97.9793C15.1242 97.1161 15.1242 95.4759 15.4679 94.44C15.7257 93.4041 16.3273 93.0588 16.8429 92.7998C17.3585 92.4545 17.9601 92.2819 18.6475 92.0229C19.421 91.7639 20.3663 91.5913 20.8819 90.728C21.3975 89.9511 21.4834 88.5699 21.6553 87.3613C21.7412 86.1528 21.9131 85.1169 22.1709 84.5126C22.4287 83.9083 22.8584 83.7357 23.2881 83.822C23.7177 83.9946 24.1474 84.4263 24.4052 85.9801C24.663 87.4476 24.8349 90.0374 25.0927 91.5913C25.4364 93.2315 25.9521 93.9221 26.5536 94.2674C27.1551 94.6127 27.6708 94.6127 28.5301 94.6127C29.3035 94.6127 30.3348 94.6127 30.9363 94.699C31.5379 94.699 31.7097 94.699 32.2253 93.9221C32.7409 93.1451 33.6862 91.5049 34.2878 90.2964C34.8893 89.0878 35.2331 88.2246 35.9206 87.7929C36.608 87.3613 37.7252 87.3613 39.0142 87.275C40.3033 87.1887 41.936 86.9297 42.8813 86.6707C43.8266 86.4117 44.1704 86.1528 44.7719 85.4622C45.5453 84.8579 46.5765 83.7357 47.6078 82.6134Z" fill="white"/>
<path fill-rule="evenodd" clip-rule="evenodd" d="M157.863 104.367C157.863 105.921 157.692 107.13 157.262 107.82C156.832 108.511 156.231 108.943 155.371 109.115C154.512 109.288 153.223 109.374 151.418 109.374H145.059V88.0518H155.887V91.7638H150.559V95.3895H151.418C153.137 95.3895 154.426 95.4758 155.285 95.6485C156.145 95.8211 156.832 96.3391 157.262 97.0297C157.692 97.7203 157.949 98.8425 157.949 100.31V104.367H157.863ZM152.278 103.763V100.655C152.278 99.7921 152.192 99.1878 152.02 99.0152C151.848 98.8425 151.332 98.7562 150.473 98.6699V105.662C151.16 105.662 151.676 105.576 151.934 105.403C152.192 105.231 152.278 104.713 152.278 103.763ZM160.957 88.0518H170.152V92.2818H166.457V96.3391H169.894V100.396H166.457V105.058H170.496V109.288H160.871V88.0518H160.957ZM173.332 88.0518H178.918C180.464 88.0518 181.582 88.1382 182.355 88.3971C183.128 88.6561 183.73 89.0014 184.16 89.4331C184.589 89.8647 184.847 90.469 185.019 91.0732C185.191 91.6775 185.191 92.7134 185.191 94.0083V95.9075C185.191 97.2887 185.019 98.2383 184.761 98.8425C184.503 99.4468 183.988 99.9648 183.214 100.31C182.441 100.655 181.496 100.828 180.293 100.828H178.832V109.461H173.332V88.0518ZM178.918 91.6775V97.116C179.089 97.116 179.175 97.116 179.347 97.116C179.863 97.116 180.207 97.0297 180.379 96.7707C180.55 96.5117 180.636 95.9938 180.636 95.2169V93.4904C180.636 92.7997 180.55 92.2818 180.293 92.0228C180.035 91.7638 179.605 91.6775 178.918 91.6775ZM203.839 113H200.058V109.288H191.12V113H187.339V104.885H188.456C189.058 103.159 189.574 100.828 189.917 97.9793C190.261 95.1305 190.519 92.0228 190.519 88.6561V88.0518H202.808V104.885H203.925V113H203.839ZM197.136 104.885V92.1955H195.503V92.3681C195.503 96.4254 195.073 100.655 194.214 104.885H197.136ZM219.049 109.374H214.409V99.6195L211.573 109.374H206.761V88.0518H211.401V97.7203L214.495 88.0518H219.049V109.374ZM232.026 92.2818H227.987V109.374H222.487V88.0518H232.026V92.2818ZM234.69 88.0518H243.885V92.2818H240.19V96.3391H243.627V100.396H240.19V105.058H244.229V109.288H234.604V88.0518H234.69ZM259.955 97.2887H254.455V93.5767C254.455 92.4544 254.369 91.8502 254.283 91.5912C254.197 91.3322 253.939 91.1596 253.51 91.1596C253.08 91.1596 252.736 91.3322 252.65 91.6775C252.564 92.0228 252.478 92.7134 252.478 93.7493V103.677C252.478 104.713 252.564 105.403 252.65 105.749C252.736 106.094 253.08 106.18 253.424 106.18C253.853 106.18 254.111 106.008 254.197 105.662C254.283 105.317 254.369 104.626 254.369 103.418V100.742H259.869V101.605C259.869 103.849 259.697 105.403 259.439 106.353C259.095 107.302 258.408 108.079 257.377 108.77C256.345 109.461 254.97 109.806 253.424 109.806C251.791 109.806 250.502 109.547 249.385 108.943C248.353 108.338 247.666 107.561 247.322 106.525C246.978 105.49 246.807 103.936 246.807 101.864V95.6485C246.807 94.0946 246.893 92.9724 246.978 92.1955C247.064 91.4185 247.408 90.6416 247.924 89.951C248.439 89.2604 249.127 88.6561 250.072 88.3108C251.017 87.8792 252.049 87.7065 253.252 87.7065C254.885 87.7065 256.259 88.0518 257.291 88.6561C258.322 89.2604 259.009 90.0373 259.353 90.9869C259.697 91.9365 259.869 93.404 259.869 95.3895V97.2887H259.955ZM274.22 88.0518V92.2818H270.954V109.374H265.455V92.2818H262.189V88.0518H274.22ZM289.001 109.374H283.501V99.7921C282.813 99.7921 282.384 99.8784 282.126 100.137C281.954 100.396 281.782 100.914 281.782 101.691V109.374H276.626V102.986C276.626 101.864 276.712 101.087 276.798 100.483C276.884 99.8784 277.228 99.4468 277.657 99.1015C278.087 98.7562 278.775 98.4109 279.72 98.1519C278.431 98.0656 277.657 97.634 277.228 97.0297C276.884 96.4254 276.626 95.3032 276.626 93.7493C276.626 92.2818 276.798 91.2459 277.142 90.3826C277.486 89.6057 278.001 89.0014 278.689 88.6561C279.376 88.3108 280.15 88.0518 281.009 88.0518C281.868 87.9655 283.243 87.9655 285.048 87.9655H289.001V109.374ZM283.501 96.4254V91.6775H283.243C282.814 91.6775 282.47 91.7638 282.212 92.0228C281.954 92.1955 281.868 92.7134 281.868 93.3177V94.5263C281.868 95.3032 281.954 95.8211 282.126 96.0801C282.298 96.2528 282.728 96.4254 283.501 96.4254ZM303.524 88.0518L301.547 97.4613L304.469 109.374H299.399C298.797 107.216 298.196 104.626 297.68 101.605C297.508 102.986 297.337 104.367 297.079 105.921L296.563 109.374H291.149L293.126 97.4613L291.149 88.0518H296.477C296.563 88.6561 296.735 89.6057 297.079 90.9869C297.337 92.0228 297.508 92.9724 297.68 93.922L298.883 88.0518H303.524Z" fill="white"/>
<path fill-rule="evenodd" clip-rule="evenodd" d="M55.8581 71.5636C54.8269 70.5277 53.4519 70.0098 51.7332 70.0098C49.6708 70.0098 48.038 70.7004 47.0068 71.9952C45.8896 73.2901 45.374 75.2756 45.374 77.779V78.3833H33.6868V78.038C33.6868 72.5132 35.3195 68.1969 38.4992 65.0892C41.6788 61.8952 46.0615 60.3413 51.6473 60.3413C56.2018 60.3413 59.8971 61.2909 62.9048 63.2764L55.8581 71.5636Z" fill="white"/>
<path fill-rule="evenodd" clip-rule="evenodd" d="M67.975 109.374H31.968L53.6237 83.563L59.983 75.9663C59.2955 79.074 59.0377 82.3544 59.0377 85.4621C59.0377 87.8792 59.2096 90.3827 59.5533 92.8861L53.9675 99.1015H61.0142C61.8735 101.519 62.9907 103.763 64.4516 105.835C65.6547 107.216 66.7719 108.425 67.975 109.374Z" fill="white"/>
<path fill-rule="evenodd" clip-rule="evenodd" d="M98.8258 85.98C98.8258 86.7569 98.8258 87.4475 98.7398 88.2244L79.834 110.669C74.506 110.496 70.2952 108.252 67.1156 103.936C63.8501 99.4467 62.2173 93.3176 62.2173 85.462C62.2173 77.6064 63.8501 71.4773 67.1156 67.0747C70.3811 62.5858 74.8498 60.3413 80.5215 60.3413C83.9589 60.3413 86.8807 61.1182 89.3729 62.6721L89.2869 62.7584C86.6229 65.4345 84.9902 68.6286 84.2167 72.0816C83.2715 70.7867 82.0684 70.1824 80.6075 70.1824C78.4591 70.1824 76.9122 71.391 75.881 73.8081C74.9357 76.2252 74.4201 80.1098 74.4201 85.462C74.4201 90.7279 74.9357 94.6125 75.881 97.0296C76.8263 99.4467 78.3731 100.655 80.5215 100.655C82.584 100.655 84.1308 99.4467 85.162 96.9433C86.1073 94.5262 86.6229 90.6415 86.6229 85.3757C86.6229 83.9082 86.6229 82.6133 86.537 81.4047H98.6539C98.8258 82.9586 98.8258 84.4261 98.8258 85.98Z" fill="white"/>
<path fill-rule="evenodd" clip-rule="evenodd" d="M108.88 71.5636C107.849 70.5277 106.474 70.0098 104.755 70.0098C102.693 70.0098 101.06 70.7004 100.029 71.9952C98.9118 73.2901 98.3962 75.2756 98.3962 77.779V78.3833H86.7949V78.038C86.7949 72.5132 88.4277 68.1969 91.6073 65.0892C94.7869 61.8952 99.1696 60.3413 104.755 60.3413C109.31 60.3413 113.005 61.2909 116.013 63.2764L108.88 71.5636Z" fill="white"/>
<path fill-rule="evenodd" clip-rule="evenodd" d="M119.966 109.374H85.0762L106.732 83.5627L113.349 75.707H119.966V83.9943C118.935 85.6345 117.56 87.4473 115.841 89.3465L107.162 99.0149H119.966V109.374Z" fill="white"/>
<path fill-rule="evenodd" clip-rule="evenodd" d="M123.403 109.374V73.8078L127.013 72.3403H123.403H112.747H112.49L121.685 61.377H121.856H135.434V109.374H123.403Z" fill="white"/>
</svg>
